<svg height="32" viewBox="0 0 32 32" width="32" xmlns="http://www.w3.org/2000/svg"><g fill="none"><path d="m0 0h32v32h-32z"/><g stroke="#9775ff" stroke-linecap="square" stroke-miterlimit="10" stroke-width="2"><path d="m11 11h-10v-10h10z" stroke="#9775ff"/><path d="m5 5h2v2h-2z"/><path d="m11 31h-10v-10h10z" stroke="#9775ff"/><path d="m5 25h2v2h-2z"/><path d="m31 11h-10v-10h10z" stroke="#9775ff"/><path d="m25 5h2v2h-2z"/><g stroke="#9775ff"><path d="m31 31h-9v-4h-6v-2"/><path d="m20 22h7v-6h4"/><path d="m2 14v2h6v2"/><path d="m18 2v4h-3v10h7v2"/><path d="m27 22h4"/><path d="m27 31v-3h2v-2"/><path d="m16 27v4"/><path d="m8 16h2"/><path d="m29 16v-2"/><path d="m15 16h2v3h-2z"/><path d="m17 11h-2"/><path d="m29 28v3"/></g></g></g></svg>