<svg height="64" viewBox="0 0 64 64" width="64" xmlns="http://www.w3.org/2000/svg"><path d="m0 0h64v64h-64z" fill="none"/><g fill="#9775ff"><path d="m32.8 22.4 12 16c.229.303.263.708.095 1.047-.17.339-.516.553-.895.553h-10v21c0 .552-.448 1-1 1h-2c-.552 0-1-.448-1-1v-21h-10c-.379 0-.725-.214-.895-.553-.07-.141-.105-.295-.105-.447 0-.212.067-.424.2-.6l12-16c.188-.252.485-.4.8-.4s.611.148.8.4z"/><path d="m61 1h-58c-1.105 0-2 .895-2 2v46c0 1.105.895 2 2 2h21v-2h-20c-.552 0-1-.448-1-1v-34c0-.552.448-1 1-1h56c.552 0 1 .448 1 1v34c0 .552-.448 1-1 1h-20v2h21c1.105 0 2-.895 2-2v-46c0-1.105-.895-2-2-2zm-54 8c-1.105 0-2-.895-2-2s.895-2 2-2 2 .895 2 2-.895 2-2 2zm7 0c-1.105 0-2-.895-2-2s.895-2 2-2 2 .895 2 2-.895 2-2 2zm7 0c-1.105 0-2-.895-2-2s.895-2 2-2 2 .895 2 2-.895 2-2 2z" fill="#9775ff"/></g></svg>