<svg height="48" viewBox="0 0 48 48" width="48" xmlns="http://www.w3.org/2000/svg"><path d="m0 0h48v48h-48z" fill="none"/><g fill="#9775ff"><path d="m16 2h-14v14h14zm-2 12h-10v-10h10z" fill="#9775ff"/><path d="m31 42h-2v4h17v-2h-15z" fill="#9775ff"/><path d="m6 6h6v6h-6z"/><path d="m2 46h14v-14h-14zm2-12h10v10h-10z" fill="#9775ff"/><path d="m6 36h6v6h-6z"/><path d="m32 2v14h14v-14zm12 12h-10v-10h10z" fill="#9775ff"/><path d="m36 6h6v6h-6z"/><g fill="#9775ff"><path d="m42 18h4v4h-4z"/><path d="m2 26h4v4h-4z"/><path d="m23 18h-8v2h10v-4-2h2v-4h-2-2-2v-4h2v2h7v-6h-2v4h-3v-4h-1-4-1v10h4v2h-4v2h4z"/><path d="m5 24h4 2 1v2h-4v2h4v2h8v-2h-6v-2-4h-3v-3h-2v3h-2v-4h-5v2h3z"/><path d="m24 42v-5h-4v-4h-2v6h4v3h-4v2h4v2h5v-2h-3z"/><path d="m34 22h-4v-5h-2v7h10v-2h-2v-2h3v-2h-3-2-2v2h2z"/><path d="m32 40h3v2h4v-2-2-3h-4v3h-3v-3h-2v3h-2v-8h-2v-2h-2v-6h-7v4h2v-2h3v4 4h4v6 2h2 2z"/><path d="m44 27h-3-2-5v4h-2v-4h-2v6h6v-4h3v3h2v-3h3v6h-3v6h5v-2h-3v-2h3v-8-2-3h-2z"/></g></g></svg>