<svg height="64" viewBox="0 0 64 64" width="64" xmlns="http://www.w3.org/2000/svg"><g fill="none"><path d="m0 0h64v64h-64z"/><g stroke="#9775ff" stroke-linecap="square" stroke-miterlimit="10" stroke-width="2"><path d="m20 20h-18v-18h18z" stroke="#9775ff"/><path d="m8 8h6v6h-6z"/><path d="m20 62h-18v-18h18z" stroke="#9775ff"/><path d="m8 50h6v6h-6z"/><path d="m62 20h-18v-18h18z" stroke="#9775ff"/><path d="m50 8h6v6h-6z"/><g stroke="#9775ff"><path d="m62 61h-22v-3"/><path d="m34 61h-4v-9h-4v-7"/><path d="m26 59h4"/><path d="m38 2v6h-6v-6h-6v12h6v11h-11"/><path d="m26 19h6"/><path d="m2 26h5v4h10v9h8"/><path d="m12 36h5"/><path d="m13 26v4"/><path d="m23 34v-3h8v11h5v11h12"/><path d="m42 49v4"/><path d="m42 37v6h6v-6h14"/><path d="m62 34v15h-5v6h5"/><path d="m38 23v8h15"/><path d="m44 26h9"/><path d="m47 26v5"/><path d="m49 26v5"/><path d="m55 42v-5"/><path d="m2 38v-2h4"/><path d="m62 28v-3h-3"/><path d="m48 56v-7"/><path d="m26 4h6"/><path d="m42 41h6"/></g></g></g></svg>