<svg height="48" viewBox="0 0 48 48" width="48" xmlns="http://www.w3.org/2000/svg"><path d="m0 0h48v48h-48z" fill="none"/><path d="m45 45h-42c-1.105 0-2-.895-2-2v-38c0-1.105.895-2 2-2h42c1.105 0 2 .895 2 2v38c0 1.105-.895 2-2 2z" fill="#444"/><path d="m3 10h42v33h-42z" fill="#fff"/><circle cx="4.5" cy="6.5" fill="#e86c60" r="1.5"/><circle cx="9.5" cy="6.5" fill="#efd358" r="1.5"/><circle cx="14.5" cy="6.5" fill="#72c472" r="1.5"/><g fill="#444"><path d="m10 31c-.256 0-.512-.098-.707-.293-.391-.391-.391-1.023 0-1.414l3.293-3.293-3.293-3.293c-.391-.391-.391-1.023 0-1.414s1.023-.391 1.414 0l4 4c.391.391.391 1.023 0 1.414l-4 4c-.195.195-.451.293-.707.293z"/><path d="m28 31h-8c-.552 0-1-.448-1-1s.448-1 1-1h8c.552 0 1 .448 1 1s-.448 1-1 1z"/></g></svg>