<svg height="32" viewBox="0 0 32 32" width="32" xmlns="http://www.w3.org/2000/svg"><path d="m0 0h32v32h-32z" fill="none"/><g fill="#fff"><path d="m0 12h12v-12h-12zm2-10h8v8h-8z" fill="#fff"/><path d="m4 4h4v4h-4z"/><path d="m0 32h12v-12h-12zm2-10h8v8h-8z" fill="#fff"/><path d="m4 24h4v4h-4z"/><path d="m20 0v12h12v-12zm10 10h-8v-8h8z" fill="#fff"/><path d="m24 4h4v4h-4z"/><g fill="#fff"><path d="m1 13v4h6v2h2v-2h2v-2h-8v-2z"/><path d="m30 13h-2v2h-2v6h-7v2h13v-2h-4v-4h4v-2h-2z"/><path d="m18 17h3v2h2v-4h-7v-3h2v-2h-2v-3h3v-6h-2v4h-3v15h4z"/><path d="m30 25h-2v2h-2v3h-3v-4h-6v-2h-2v8h2v-4h4v4h11v-2h-2z"/></g></g></svg>