<svg height="64" viewBox="0 0 64 64" width="64" xmlns="http://www.w3.org/2000/svg"><path d="m0 0h64v64h-64z" fill="none"/><g fill="#fff"><path d="m21 1h-20v20h20zm-2 18h-16v-16h16z" fill="#fff"/><path d="m5 5h12v12h-12z"/><path d="m1 63h20v-20h-20zm2-18h16v16h-16z" fill="#fff"/><path d="m5 47h12v12h-12z"/><path d="m43 1v20h20v-20zm18 18h-16v-16h16z" fill="#fff"/><path d="m47 5h12v12h-12z"/><g fill="#fff"><path d="m41 56h-2v6h24v-2h-22z"/><path d="m31 51h-5v-7h-2v9h5v5h-5v2h5v2h7v-2h-5z"/><path d="m31 24h-12v2h14v-8h3v-5h-9v-7h4v3h9v-8h-2v6h-5v-6h-8v14h6v3h-6v2h6z"/><path d="m6 31h10v4h-6v2h6v3h11v-2h-9v-9h-5v-4h-2v4h-3v-5h-7v2h5z"/><path d="m41 48v4h-4v-11h-2v-4h-3v-8h-10v6h2v-4h6v12h5v11h13v3h5v-9h-5v4h-5v-4z"/><path d="m61 36h-14v6h-4v-6h-2v8h8v-6h5v5h2v-5h5v10h-5v8h7v-2h-5v-4h5v-18h-2z"/><path d="m46 30h-6v-8h-2v10h16v-2h-6v-4h6v-2h-11v2h3z"/><path d="m1 35h6v6h-6z"/><path d="m57 24h6v6h-6z"/></g></g></svg>