<svg height="48" viewBox="0 0 48 48" width="48" xmlns="http://www.w3.org/2000/svg"><g fill="none"><path d="m0 0h48v48h-48z"/><g stroke="#fff" stroke-linecap="square" stroke-miterlimit="10" stroke-width="2"><path d="m18 18h-16v-16h16z" stroke="#fff"/><path d="m46 38v-8h-10v-3" stroke="#fff"/><path d="m46 46h-16" stroke="#fff"/><path d="m12 12h-4v-4h4z"/><path d="m46 18h-16v-16h16z" stroke="#fff"/><path d="m40 12h-4v-4h4z"/><path d="m18 46h-16v-16h16z" stroke="#fff"/><path d="m12 40h-4v-4h4z"/><path d="m40 40h-4v-4h4z"/><g stroke="#fff"><path d="m25 41v-4h4v-10"/><path d="m17 25v-2h7v4"/><path d="m22 11h3v-5"/><path d="m43 24v6"/><path d="m2 22v2h6"/></g></g></g></svg>